{"accessors":[{"bufferView":0,"componentType":5121,"count":6,"max":[3],"min":[0],"type":"SCALAR"},{"bufferView":1,"componentType":5126,"count":4,"max":[0.25178489089012146,0.8746523261070251,-1.0829505920410156],"min":[-0.2520090639591217,0.6080954670906067,-1.0829505920410156],"type":"VEC3"},{"bufferView":2,"componentType":5126,"count":4,"max":[0.0,0.0,1.0],"min":[0.0,0.0,1.0],"type":"VEC3"},{"bufferView":3,"componentType":5126,"count":4,"max":[0.9979768991470337,0.9913673996925354],"min":[0.002801348455250263,0.0065593719482421875],"type":"VEC2"},{"bufferView":4,"componentType":5121,"count":150,"max":[91],"min":[0],"type":"SCALAR"},{"bufferView":5,"componentType":5126,"count":92,"max":[0.953496515750885,1.555966854095459,0.09877023845911026],"min":[0.9534962773323059,0.8396185636520386,-0.5738283395767212],"type":"VEC3"},{"bufferView":6,"componentType":5126,"count":92,"max":[-1.0,3.999999989900971e-06,1.9999999949504854e-06],"min":[-1.0,0.0,-3.999999989900971e-06],"type":"VEC3"},{"bufferView":7,"componentType":5126,"count":92,"max":[0.4819554090499878,0.10352778434753418],"min":[0.40042728185653687,0.01679539680480957],"type":"VEC2"},{"bufferView":8,"componentType":5123,"count":93240,"max":[53173],"min":[0],"type":"SCALAR"},{"bufferView":9,"componentType":5126,"count":53174,"max":[1.1796622276306152,1.8849802017211914,1.0140398740768433],"min":[-1.6457526683807373,-2.5633352151999134e-07,-1.4079368114471436],"type":"VEC3"},{"bufferView":10,"componentType":5126,"count":53174,"max":[1.0,1.0,1.0],"min":[-1.0,-1.0,-1.0],"type":"VEC3"},{"bufferView":11,"componentType":5126,"count":53174,"max":[0.9963826537132263,0.9973924160003662],"min":[0.0024225993547588587,0.0019237995147705078],"type":"VEC2"},{"bufferView":12,"componentType":5123,"count":124011,"max":[53494],"min":[0],"type":"SCALAR"},{"bufferView":13,"componentType":5126,"count":53495,"max":[0.9785540103912354,1.7256547212600708,0.9936275482177734],"min":[-1.1678003072738647,0.12856175005435944,-1.209445595741272],"type":"VEC3"},{"bufferView":14,"componentType":5126,"count":53495,"max":[1.0,1.0,1.0],"min":[-1.0,-1.0,-1.0],"type":"VEC3"},{"bufferView":15,"componentType":5126,"count":53495,"max":[0.9855550527572632,0.9968454837799072],"min":[-0.00019437646551523358,0.008406877517700195],"type":"VEC2"},{"bufferView":16,"componentType":5125,"count":164625,"max":[78078],"min":[0],"type":"SCALAR"},{"bufferView":17,"componentType":5126,"count":78079,"max":[1.0002074241638184,0.8639872074127197,1.0070405006408691],"min":[-1.8209228515625,0.10373610258102417,-1.004839301109314],"type":"VEC3"},{"bufferView":18,"componentType":5126,"count":78079,"max":[1.0,1.0,1.0],"min":[-1.0,-1.0,-1.0],"type":"VEC3"},{"bufferView":19,"componentType":5126,"count":78079,"max":[0.9954468011856079,0.9998149275779724],"min":[0.0002468351449351758,0.006067216396331787],"type":"VEC2"},{"bufferView":20,"componentType":5121,"count":570,"max":[163],"min":[0],"type":"SCALAR"},{"bufferView":21,"componentType":5126,"count":164,"max":[1.1316630840301514,1.8673837184906006,1.0016227960586548],"min":[-1.3870998620986938,-3.631182039498526e-07,-1.3599380254745483],"type":"VEC3"},{"bufferView":22,"componentType":5126,"count":164,"max":[0.4571109414100647,1.0,1.0],"min":[-1.0,0.0,-0.45719411969184875],"type":"VEC3"},{"bufferView":23,"componentType":5126,"count":164,"max":[0.545825719833374,0.9859073162078857],"min":[0.012532878667116165,0.3580127954483032],"type":"VEC2"},{"bufferView":24,"componentType":5121,"count":288,"max":[60],"min":[0],"type":"SCALAR"},{"bufferView":25,"componentType":5126,"count":61,"max":[9.69670295715332,9.748815536499023,9.878280639648438],"min":[-9.923101425170898,0.0,-9.80860710144043],"type":"VEC3"},{"bufferView":26,"componentType":5126,"count":61,"max":[9.999997701015673e-07,1.0,1.0],"min":[-1.0,0.0,-9.999997701015673e-07],"type":"VEC3"},{"bufferView":27,"componentType":5126,"count":61,"max":[0.9768540859222412,0.993105411529541],"min":[0.006783336400985718,0.006894588470458984],"type":"VEC2"},{"bufferView":28,"componentType":5123,"count":4656,"max":[3407],"min":[0],"type":"SCALAR"},{"bufferView":29,"componentType":5126,"count":3408,"max":[0.9201602339744568,1.6235506534576416,0.9180517196655273],"min":[-0.4059520959854126,0.612750232219696,-1.195699691772461],"type":"VEC3"},{"bufferView":30,"componentType":5126,"count":3408,"max":[0.9986884593963623,0.9951817393302917,0.9985214471817017],"min":[-0.9986846446990967,-0.9841045141220093,-0.9985598921775818],"type":"VEC3"},{"bufferView":31,"componentType":5126,"count":3408,"max":[0.9870461225509644,0.6700316071510315],"min":[0.2175826132297516,0.004653513431549072],"type":"VEC2"},{"bufferView":32,"componentType":5125,"count":122559,"max":[76557],"min":[0],"type":"SCALAR"},{"bufferView":33,"componentType":5126,"count":76558,"max":[0.9795860052108765,1.674314022064209,0.5226925611495972],"min":[-1.2371238470077515,0.1289285570383072,-1.53217351436615],"type":"VEC3"},{"bufferView":34,"componentType":5126,"count":76558,"max":[1.0,1.0,1.0],"min":[-1.0,-1.0,-1.0],"type":"VEC3"},{"bufferView":35,"componentType":5126,"count":76558,"max":[0.994811475276947,0.9979807734489441],"min":[0.00017450978339184076,0.0005974173545837402],"type":"VEC2"}],"asset":{"generator":"Verge3D for Blender v4.6.0","version":"2.0"},"bufferViews":[{"buffer":0,"byteLength":6,"byteOffset":0,"target":34963},{"buffer":0,"byteLength":48,"byteOffset":8,"target":34962},{"buffer":0,"byteLength":48,"byteOffset":56,"target":34962},{"buffer":0,"byteLength":32,"byteOffset":104,"target":34962},{"buffer":0,"byteLength":150,"byteOffset":136,"target":34963},{"buffer":0,"byteLength":1104,"byteOffset":288,"target":34962},{"buffer":0,"byteLength":1104,"byteOffset":1392,"target":34962},{"buffer":0,"byteLength":736,"byteOffset":2496,"target":34962},{"buffer":0,"byteLength":186480,"byteOffset":3232,"target":34963},{"buffer":0,"byteLength":638088,"byteOffset":189712,"target":34962},{"buffer":0,"byteLength":638088,"byteOffset":827800,"target":34962},{"buffer":0,"byteLength":425392,"byteOffset":1465888,"target":34962},{"buffer":0,"byteLength":248022,"byteOffset":1891280,"target":34963},{"buffer":0,"byteLength":641940,"byteOffset":2139304,"target":34962},{"buffer":0,"byteLength":641940,"byteOffset":2781244,"target":34962},{"buffer":0,"byteLength":427960,"byteOffset":3423184,"target":34962},{"buffer":0,"byteLength":658500,"byteOffset":3851144,"target":34963},{"buffer":0,"byteLength":936948,"byteOffset":4509644,"target":34962},{"buffer":0,"byteLength":936948,"byteOffset":5446592,"target":34962},{"buffer":0,"byteLength":624632,"byteOffset":6383540,"target":34962},{"buffer":0,"byteLength":570,"byteOffset":7008172,"target":34963},{"buffer":0,"byteLength":1968,"byteOffset":7008744,"target":34962},{"buffer":0,"byteLength":1968,"byteOffset":7010712,"target":34962},{"buffer":0,"byteLength":1312,"byteOffset":7012680,"target":34962},{"buffer":0,"byteLength":288,"byteOffset":7013992,"target":34963},{"buffer":0,"byteLength":732,"byteOffset":7014280,"target":34962},{"buffer":0,"byteLength":732,"byteOffset":7015012,"target":34962},{"buffer":0,"byteLength":488,"byteOffset":7015744,"target":34962},{"buffer":0,"byteLength":9312,"byteOffset":7016232,"target":34963},{"buffer":0,"byteLength":40896,"byteOffset":7025544,"target":34962},{"buffer":0,"byteLength":40896,"byteOffset":7066440,"target":34962},{"buffer":0,"byteLength":27264,"byteOffset":7107336,"target":34962},{"buffer":0,"byteLength":490236,"byteOffset":7134600,"target":34963},{"buffer":0,"byteLength":918696,"byteOffset":7624836,"target":34962},{"buffer":0,"byteLength":918696,"byteOffset":8543532,"target":34962},{"buffer":0,"byteLength":612464,"byteOffset":9462228,"target":34962}],"buffers":[{"byteLength":10074692,"uri":"2Work_station.bin"}],"cameras":[{"extensions":{"S8S_v3d_camera":{"controls":"ORBIT","enablePan":false,"moveSpeed":0.5199999809265137,"orbitMaxAzimuthAngle":0.0,"orbitMaxDistance":80.0,"orbitMaxPolarAngle":1.3962633609771729,"orbitMaxZoom":100.0,"orbitMinAzimuthAngle":-1.483529806137085,"orbitMinDistance":30.0,"orbitMinPolarAngle":0.3490658402442932,"orbitMinZoom":0.009999999776482582,"orbitTarget":[0.0,1.0178579092025757,-0.28788918256759644],"rotateSpeed":0.2800000309944153,"viewportFitInitialAspect":1.7777777777777777,"viewportFitType":"AUTO"}},"name":"Camera.001","perspective":{"aspectRatio":1.7777777777777777,"yfov":0.04200627281376897,"zfar":1000.0,"znear":0.10000000149011612},"type":"perspective"}],"extensions":{"S8S_v3d_light_probes":{}},"extensionsUsed":["S8S_v3d_texture","S8S_v3d_materials","S8S_v3d_camera","S8S_v3d_mesh","S8S_v3d_node","S8S_v3d_light_probes","S8S_v3d_scene"],"images":[{"uri":"park1_bake.jpg"},{"uri":"park2_bake.jpg"},{"uri":"park4_bake.jpg"},{"uri":"park3_bake.jpg"},{"uri":"park5_bake.jpg"},{"uri":"park6_bake.jpg"},{"uri":"tap_here_texture.jpg"},{"uri":"environment.hdr"}],"materials":[{"alphaMode":"BLEND","doubleSided":false,"extensions":{"S8S_v3d_materials":{"depthWrite":false,"gtaoVisible":false,"materialIndex":0,"nodeGraph":{"edges":[{"fromNode":1,"fromOutput":0,"toInput":0,"toNode":0},{"fromNode":2,"fromOutput":0,"toInput":0,"toNode":3}],"nodes":[{"inputs":[[0,0,0,0],[0,0,0,0],[0.0,0.0,0.0],0.0],"is_active_output":true,"name":"Material Output","outputs":[],"type":"OUTPUT_MATERIAL_BL"},{"inputs":[[1.0000001192092896,0.6038275361061096,0.35153263807296753,1.0],0.0,0.5,1.5,1.0,[0.0,0.0,0.0],0.0,[1.0,0.20000000298023224,0.10000000149011612],0.05000000074505806,1.399999976158142,0.0,0.5,[1.0,1.0,1.0,1.0],0.0,0.0,[0.0,0.0,0.0],0.0,0.0,0.029999999329447746,1.5,[1.0,1.0,1.0,1.0],[0.0,0.0,0.0],0.0,0.5,[1.0,1.0,1.0,1.0],[1.0,0.14966416358947754,0.02837439253926277,1.0],15.0],"is_active_output":false,"name":"Principled BSDF","outputs":[[0,0,0,0]],"type":"BSDF_PRINCIPLED_BL"},{"inputs":[],"is_active_output":false,"name":"UV Map","outputs":[[0.0,0.0,0.0]],"type":"UVMAP_BL","uvLayer":"UVMap"},{"inputs":[[0.0,0.0,0.0]],"is_active_output":false,"name":"Image Texture.004","outputs":[[0.0,0.0,0.0,0.0],0.0],"projection":"FLAT","projectionBlend":0.0,"type":"TEX_IMAGE_NONE_BL"}]},"renderSide":"FRONT","useCastShadows":true}},"name":"GLOWING SITS.004"},{"extensions":{"S8S_v3d_materials":{"gtaoVisible":true,"materialIndex":0,"nodeGraph":{"edges":[{"fromNode":0,"fromOutput":0,"toInput":0,"toNode":1},{"fromNode":2,"fromOutput":0,"toInput":0,"toNode":0},{"fromNode":2,"fromOutput":0,"toInput":25,"toNode":0}],"nodes":[{"inputs":[[0.800000011920929,0.800000011920929,0.800000011920929,1.0],0.0,1.0,1.4500000476837158,1.0,[0.0,0.0,0.0],0.0,[1.0,0.20000000298023224,0.10000000149011612],0.05000000074505806,1.399999976158142,0.0,0.0,[1.0,1.0,1.0,1.0],0.0,0.0,[0.0,0.0,0.0],0.0,0.0,0.029999999329447746,1.5,[1.0,1.0,1.0,1.0],[0.0,0.0,0.0],0.0,0.5,[1.0,1.0,1.0,1.0],[1.0,1.0,1.0,1.0],1.0],"is_active_output":false,"name":"Principled BSDF","outputs":[[0,0,0,0]],"type":"BSDF_PRINCIPLED_BL"},{"inputs":[[0,0,0,0],[0,0,0,0],[0.0,0.0,0.0],0.0],"is_active_output":true,"name":"Material Output","outputs":[],"type":"OUTPUT_MATERIAL_BL"},{"alphaMode":"STRAIGHT","inputs":[[0.0,0.0,0.0]],"is_active_output":false,"name":"Image Texture","outputs":[[0.0,0.0,0.0,0.0],0.0],"projection":"FLAT","projectionBlend":0.0,"texture":0,"type":"TEX_IMAGE_BL"}]},"useCastShadows":true}},"name":"Material"},{"extensions":{"S8S_v3d_materials":{"gtaoVisible":true,"materialIndex":0,"nodeGraph":{"edges":[{"fromNode":0,"fromOutput":0,"toInput":0,"toNode":1},{"fromNode":2,"fromOutput":0,"toInput":0,"toNode":0},{"fromNode":2,"fromOutput":0,"toInput":25,"toNode":0}],"nodes":[{"inputs":[[0.800000011920929,0.800000011920929,0.800000011920929,1.0],0.0,1.0,1.4500000476837158,1.0,[0.0,0.0,0.0],0.0,[1.0,0.20000000298023224,0.10000000149011612],0.05000000074505806,1.399999976158142,0.0,0.0,[0.0,0.0,0.0,1.0],0.0,0.0,[0.0,0.0,0.0],0.0,0.0,0.029999999329447746,1.5,[1.0,1.0,1.0,1.0],[0.0,0.0,0.0],0.0,0.5,[0.0,0.0,0.0,1.0],[1.0,1.0,1.0,1.0],1.0],"is_active_output":false,"name":"Principled BSDF","outputs":[[0,0,0,0]],"type":"BSDF_PRINCIPLED_BL"},{"inputs":[[0,0,0,0],[0,0,0,0],[0.0,0.0,0.0],0.0],"is_active_output":true,"name":"Material Output","outputs":[],"type":"OUTPUT_MATERIAL_BL"},{"alphaMode":"STRAIGHT","inputs":[[0.0,0.0,0.0]],"is_active_output":false,"name":"Image Texture","outputs":[[0.0,0.0,0.0,0.0],0.0],"projection":"FLAT","projectionBlend":0.0,"texture":1,"type":"TEX_IMAGE_BL"}]},"useCastShadows":true}},"name":"Material.001"},{"extensions":{"S8S_v3d_materials":{"gtaoVisible":true,"materialIndex":0,"nodeGraph":{"edges":[{"fromNode":0,"fromOutput":0,"toInput":0,"toNode":1},{"fromNode":2,"fromOutput":0,"toInput":0,"toNode":0},{"fromNode":2,"fromOutput":0,"toInput":25,"toNode":0}],"nodes":[{"inputs":[[0.800000011920929,0.800000011920929,0.800000011920929,1.0],0.0,1.0,1.4500000476837158,1.0,[0.0,0.0,0.0],0.0,[1.0,0.20000000298023224,0.10000000149011612],0.05000000074505806,1.399999976158142,0.0,0.0,[1.0,1.0,1.0,1.0],0.0,0.0,[0.0,0.0,0.0],0.0,0.0,0.029999999329447746,1.5,[1.0,1.0,1.0,1.0],[0.0,0.0,0.0],0.0,0.5,[1.0,1.0,1.0,1.0],[1.0,1.0,1.0,1.0],1.0],"is_active_output":false,"name":"Principled BSDF","outputs":[[0,0,0,0]],"type":"BSDF_PRINCIPLED_BL"},{"inputs":[[0,0,0,0],[0,0,0,0],[0.0,0.0,0.0],0.0],"is_active_output":true,"name":"Material Output","outputs":[],"type":"OUTPUT_MATERIAL_BL"},{"alphaMode":"STRAIGHT","inputs":[[0.0,0.0,0.0]],"is_active_output":false,"name":"Image Texture","outputs":[[0.0,0.0,0.0,0.0],0.0],"projection":"FLAT","projectionBlend":0.0,"texture":2,"type":"TEX_IMAGE_BL"}]},"useCastShadows":true}},"name":"Material.002"},{"extensions":{"S8S_v3d_materials":{"gtaoVisible":true,"materialIndex":0,"nodeGraph":{"edges":[{"fromNode":0,"fromOutput":0,"toInput":0,"toNode":1},{"fromNode":2,"fromOutput":0,"toInput":0,"toNode":0},{"fromNode":2,"fromOutput":0,"toInput":25,"toNode":0}],"nodes":[{"inputs":[[0.800000011920929,0.800000011920929,0.800000011920929,1.0],0.0,1.0,1.4500000476837158,1.0,[0.0,0.0,0.0],0.0,[1.0,0.20000000298023224,0.10000000149011612],0.05000000074505806,1.399999976158142,0.0,0.0,[1.0,1.0,1.0,1.0],0.0,0.0,[0.0,0.0,0.0],0.0,0.0,0.029999999329447746,1.5,[1.0,1.0,1.0,1.0],[0.0,0.0,0.0],0.0,0.5,[1.0,1.0,1.0,1.0],[1.0,1.0,1.0,1.0],1.0],"is_active_output":false,"name":"Principled BSDF","outputs":[[0,0,0,0]],"type":"BSDF_PRINCIPLED_BL"},{"inputs":[[0,0,0,0],[0,0,0,0],[0.0,0.0,0.0],0.0],"is_active_output":true,"name":"Material Output","outputs":[],"type":"OUTPUT_MATERIAL_BL"},{"alphaMode":"NONE","inputs":[[0.0,0.0,0.0]],"is_active_output":false,"name":"Image Texture","outputs":[[0.0,0.0,0.0,0.0],0.0],"projection":"FLAT","projectionBlend":0.0,"texture":3,"type":"TEX_IMAGE_BL"}]},"useCastShadows":true}},"name":"Material.003"},{"extensions":{"S8S_v3d_materials":{"gtaoVisible":true,"materialIndex":0,"nodeGraph":{"edges":[{"fromNode":0,"fromOutput":0,"toInput":0,"toNode":1},{"fromNode":2,"fromOutput":0,"toInput":0,"toNode":0},{"fromNode":2,"fromOutput":0,"toInput":25,"toNode":0}],"nodes":[{"inputs":[[0.800000011920929,0.800000011920929,0.800000011920929,1.0],0.0,1.0,1.4500000476837158,1.0,[0.0,0.0,0.0],0.0,[1.0,0.20000000298023224,0.10000000149011612],0.05000000074505806,1.399999976158142,0.0,0.0,[1.0,1.0,1.0,1.0],0.0,0.0,[0.0,0.0,0.0],0.0,0.0,0.029999999329447746,1.5,[1.0,1.0,1.0,1.0],[0.0,0.0,0.0],0.0,0.5,[1.0,1.0,1.0,1.0],[1.0,1.0,1.0,1.0],1.0],"is_active_output":false,"name":"Principled BSDF","outputs":[[0,0,0,0]],"type":"BSDF_PRINCIPLED_BL"},{"inputs":[[0,0,0,0],[0,0,0,0],[0.0,0.0,0.0],0.0],"is_active_output":true,"name":"Material Output","outputs":[],"type":"OUTPUT_MATERIAL_BL"},{"alphaMode":"STRAIGHT","inputs":[[0.0,0.0,0.0]],"is_active_output":false,"name":"Image Texture","outputs":[[0.0,0.0,0.0,0.0],0.0],"projection":"FLAT","projectionBlend":0.0,"texture":4,"type":"TEX_IMAGE_BL"}]},"useCastShadows":true}},"name":"Material.004"},{"extensions":{"S8S_v3d_materials":{"gtaoVisible":true,"materialIndex":0,"nodeGraph":{"edges":[{"fromNode":0,"fromOutput":0,"toInput":0,"toNode":1},{"fromNode":2,"fromOutput":0,"toInput":0,"toNode":0},{"fromNode":2,"fromOutput":0,"toInput":25,"toNode":0}],"nodes":[{"inputs":[[0.800000011920929,0.800000011920929,0.800000011920929,1.0],0.0,1.0,1.4500000476837158,1.0,[0.0,0.0,0.0],0.0,[1.0,0.20000000298023224,0.10000000149011612],0.05000000074505806,1.399999976158142,0.0,0.0,[1.0,1.0,1.0,1.0],0.0,0.0,[0.0,0.0,0.0],0.0,0.0,0.029999999329447746,1.5,[1.0,1.0,1.0,1.0],[0.0,0.0,0.0],0.0,0.5,[1.0,1.0,1.0,1.0],[1.0,1.0,1.0,1.0],1.0],"is_active_output":false,"name":"Principled BSDF","outputs":[[0,0,0,0]],"type":"BSDF_PRINCIPLED_BL"},{"inputs":[[0,0,0,0],[0,0,0,0],[0.0,0.0,0.0],0.0],"is_active_output":true,"name":"Material Output","outputs":[],"type":"OUTPUT_MATERIAL_BL"},{"alphaMode":"STRAIGHT","inputs":[[0.0,0.0,0.0]],"is_active_output":false,"name":"Image Texture","outputs":[[0.0,0.0,0.0,0.0],0.0],"projection":"FLAT","projectionBlend":0.0,"texture":5,"type":"TEX_IMAGE_BL"}]},"useCastShadows":true}},"name":"Material.006"},{"extensions":{"S8S_v3d_materials":{"gtaoVisible":true,"materialIndex":0,"nodeGraph":{"edges":[{"fromNode":0,"fromOutput":0,"toInput":0,"toNode":1}],"nodes":[{"inputs":[[0.800000011920929,0.800000011920929,0.800000011920929,1.0],0.0,0.5,1.4500000476837158,1.0,[0.0,0.0,0.0],0.0,[1.0,0.20000000298023224,0.10000000149011612],0.05000000074505806,1.399999976158142,0.0,0.5,[1.0,1.0,1.0,1.0],0.0,0.0,[0.0,0.0,0.0],0.0,0.0,0.029999999329447746,1.5,[1.0,1.0,1.0,1.0],[0.0,0.0,0.0],0.0,0.5,[1.0,1.0,1.0,1.0],[1.0,1.0,1.0,1.0],0.29999998211860657],"is_active_output":false,"name":"Principled BSDF","outputs":[[0,0,0,0]],"type":"BSDF_PRINCIPLED_BL"},{"inputs":[[0,0,0,0],[0,0,0,0],[0.0,0.0,0.0],0.0],"is_active_output":true,"name":"Material Output","outputs":[],"type":"OUTPUT_MATERIAL_BL"}]},"useCastShadows":true}},"name":"mirro"},{"extensions":{"S8S_v3d_materials":{"gtaoVisible":true,"materialIndex":0,"nodeGraph":{"edges":[{"fromNode":0,"fromOutput":0,"toInput":0,"toNode":1},{"fromNode":2,"fromOutput":0,"toInput":0,"toNode":0},{"fromNode":2,"fromOutput":0,"toInput":25,"toNode":0}],"nodes":[{"inputs":[[0.800000011920929,0.800000011920929,0.800000011920929,1.0],0.0,0.5,1.4500000476837158,1.0,[0.0,0.0,0.0],0.0,[1.0,0.20000000298023224,0.10000000149011612],0.05000000074505806,1.399999976158142,0.0,0.5,[1.0,1.0,1.0,1.0],0.0,0.0,[0.0,0.0,0.0],0.0,0.0,0.029999999329447746,1.5,[1.0,1.0,1.0,1.0],[0.0,0.0,0.0],0.0,0.5,[1.0,1.0,1.0,1.0],[1.0,1.0,1.0,1.0],1.0],"is_active_output":false,"name":"Principled BSDF","outputs":[[0,0,0,0]],"type":"BSDF_PRINCIPLED_BL"},{"inputs":[[0,0,0,0],[0,0,0,0],[0.0,0.0,0.0],0.0],"is_active_output":true,"name":"Material Output","outputs":[],"type":"OUTPUT_MATERIAL_BL"},{"alphaMode":"STRAIGHT","inputs":[[0.0,0.0,0.0]],"is_active_output":false,"name":"Image Texture","outputs":[[0.0,0.0,0.0,0.0],0.0],"projection":"FLAT","projectionBlend":0.0,"texture":6,"type":"TEX_IMAGE_BL"}]},"useCastShadows":true}},"name":"screen"},{"extensions":{"S8S_v3d_materials":{"gtaoVisible":true,"materialIndex":0,"nodeGraph":{"edges":[{"fromNode":0,"fromOutput":0,"toInput":0,"toNode":1},{"fromNode":4,"fromOutput":0,"toInput":6,"toNode":2},{"fromNode":3,"fromOutput":0,"toInput":0,"toNode":2},{"fromNode":2,"fromOutput":2,"toInput":0,"toNode":0}],"nodes":[{"inputs":[[0.05087608844041824,0.05087608844041824,0.05087608844041824,1.0],0.0010000000474974513],"is_active_output":false,"name":"Background","outputs":[[0,0,0,0]],"type":"BACKGROUND_BL"},{"inputs":[[0,0,0,0],[0,0,0,0]],"is_active_output":true,"name":"World Output","outputs":[],"type":"OUTPUT_WORLD_BL"},{"blendType":"MIX","clampFactor":true,"clampResult":false,"dataType":"RGBA","factorMode":"UNIFORM","inputs":[0.5,[0.5,0.5,0.5],0.0,0.0,[0.0,0.0,0.0],[0.0,0.0,0.0],[0.5,0.5,0.5,1.0],[0.0,0.0,0.0,1.0],0,0],"is_active_output":false,"name":"Mix","outputs":[0.0,[0.0,0.0,0.0],[0.0,0.0,0.0,0.0],0],"type":"MIX_BL"},{"inputs":[],"is_active_output":false,"name":"Light Path","outputs":[0.0,0.0,0.0,0.0,0.0,0.0,0.0,0.0,0.0,0.0,0.0,0.0,0.0],"type":"LIGHT_PATH_BL"},{"inputs":[[0.0,0.0,0.0]],"is_active_output":false,"name":"Environment Texture","outputs":[[0.0,0.0,0.0,0.0]],"projection":"EQUIRECTANGULAR","texture":7,"type":"TEX_ENVIRONMENT_BL"}]},"useCastShadows":true}},"name":"Verge3D_Environment_World"}],"meshes":[{"extensions":{"S8S_v3d_mesh":{"colorLayers":{},"uvLayers":{"park2":"TEXCOORD_0"}}},"name":"Cube.001","primitives":[{"attributes":{"NORMAL":2,"POSITION":1,"TEXCOORD_0":3},"indices":0,"material":8,"mode":4}]},{"extensions":{"S8S_v3d_mesh":{"colorLayers":{},"uvLayers":{"park1":"TEXCOORD_0"}}},"name":"Cube.002","primitives":[{"attributes":{"NORMAL":6,"POSITION":5,"TEXCOORD_0":7},"indices":4,"material":7,"mode":4}]},{"extensions":{"S8S_v3d_mesh":{"colorLayers":{},"uvLayers":{"park1":"TEXCOORD_0"}}},"name":"Cube.008","primitives":[{"attributes":{"NORMAL":10,"POSITION":9,"TEXCOORD_0":11},"indices":8,"material":1,"mode":4}]},{"extensions":{"S8S_v3d_mesh":{"colorLayers":{},"uvLayers":{"park2":"TEXCOORD_0"}}},"name":"Cube.050","primitives":[{"attributes":{"NORMAL":14,"POSITION":13,"TEXCOORD_0":15},"indices":12,"material":2,"mode":4}]},{"extensions":{"S8S_v3d_mesh":{"colorLayers":{},"uvLayers":{"park3":"TEXCOORD_0"}}},"name":"Cylinder.001","primitives":[{"attributes":{"NORMAL":18,"POSITION":17,"TEXCOORD_0":19},"indices":16,"material":4,"mode":4}]},{"extensions":{"S8S_v3d_mesh":{"colorLayers":{},"uvLayers":{"UVMap":"TEXCOORD_0"}}},"name":"WALLS AND FLOORS.001","primitives":[{"attributes":{"NORMAL":22,"POSITION":21,"TEXCOORD_0":23},"indices":20,"material":0,"mode":4},{"attributes":{"NORMAL":26,"POSITION":25,"TEXCOORD_0":27},"indices":24,"material":6,"mode":4}]},{"extensions":{"S8S_v3d_mesh":{"colorLayers":{},"uvLayers":{"UVMap":"TEXCOORD_0"}}},"name":"WALLS AND FLOORS.003","primitives":[{"attributes":{"NORMAL":30,"POSITION":29,"TEXCOORD_0":31},"indices":28,"material":5,"mode":4}]},{"extensions":{"S8S_v3d_mesh":{"colorLayers":{},"uvLayers":{"park4":"TEXCOORD_0"}}},"name":"WindowFrame.002","primitives":[{"attributes":{"NORMAL":34,"POSITION":33,"TEXCOORD_0":35},"indices":32,"material":3,"mode":4}]}],"nodes":[{"extensions":{"S8S_v3d_node":{"frustumCulling":true,"groupNames":[],"hidden":false,"hidpiCompositing":false,"objectColor":[1.0,1.0,1.0,1.0],"objectIndex":0,"renderOrder":0}},"name":"cam_look_3","translation":[0.9527374505996704,1.1850603818893433,-0.2872048020362854]},{"extensions":{"S8S_v3d_node":{"frustumCulling":true,"groupNames":[],"hidden":false,"hidpiCompositing":false,"objectColor":[1.0,1.0,1.0,1.0],"objectIndex":0,"renderOrder":0}},"name":"cam_1","translation":[-54.23713684082031,26.19302749633789,56.60771942138672]},{"extensions":{"S8S_v3d_node":{"frustumCulling":true,"groupNames":[],"hidden":false,"hidpiCompositing":false,"objectColor":[1.0,1.0,1.0,1.0],"objectIndex":0,"renderOrder":0}},"name":"cam_3","scale":[0.03785641863942146,0.03785641863942146,0.03785641863942146],"translation":[-0.027642741799354553,0.8949938416481018,-0.3119727671146393]},{"extensions":{"S8S_v3d_node":{"frustumCulling":true,"groupNames":[],"hidden":false,"hidpiCompositing":false,"objectColor":[1.0,1.0,1.0,1.0],"objectIndex":0,"renderOrder":0}},"name":"cam_5","scale":[0.03785641863942146,0.03785641863942146,0.03785641863942146],"translation":[-19.726106643676758,1.173835039138794,-0.2878694534301758]},{"extensions":{"S8S_v3d_node":{"frustumCulling":true,"groupNames":["Collection","Collection.001","lights"],"hidden":false,"hidpiCompositing":false,"objectColor":[1.0,1.0,1.0,1.0],"objectIndex":0,"renderOrder":0}},"name":"IrradianceVolume","scale":[1.7210203409194946,1.404997706413269,1.404997706413269],"translation":[-0.10771538317203522,1.1848690509796143,-0.15259678661823273]},{"extensions":{"S8S_v3d_node":{"frustumCulling":true,"groupNames":["Collection","Collection 2","Collection.001"],"hidden":false,"hidpiCompositing":false,"objectColor":[1.0,1.0,1.0,1.0],"objectIndex":0,"renderOrder":0,"useShadows":true}},"mesh":2,"name":"park1"},{"extensions":{"S8S_v3d_node":{"frustumCulling":true,"groupNames":["Collection","Collection 2","Collection.001"],"hidden":false,"hidpiCompositing":false,"objectColor":[1.0,1.0,1.0,1.0],"objectIndex":0,"renderOrder":0,"useShadows":true}},"mesh":5,"name":"park5.001"},{"extensions":{"S8S_v3d_node":{"frustumCulling":true,"groupNames":["Collection","Collection 2","Collection.001"],"hidden":false,"hidpiCompositing":false,"objectColor":[1.0,1.0,1.0,1.0],"objectIndex":0,"renderOrder":0,"useShadows":true}},"mesh":4,"name":"park3"},{"extensions":{"S8S_v3d_node":{"frustumCulling":true,"groupNames":[],"hidden":false,"hidpiCompositing":false,"objectColor":[1.0,1.0,1.0,1.0],"objectIndex":0,"renderOrder":0}},"name":"cam_look_1","translation":[0.0,1.0178579092025757,-0.28788918256759644]},{"extensions":{"S8S_v3d_node":{"frustumCulling":true,"groupNames":[],"hidden":false,"hidpiCompositing":false,"objectColor":[1.0,1.0,1.0,1.0],"objectIndex":0,"renderOrder":0}},"name":"cam_look_2","translation":[0.18380901217460632,0.7469608187675476,-1.0830999612808228]},{"extensions":{"S8S_v3d_node":{"frustumCulling":true,"groupNames":[],"hidden":false,"hidpiCompositing":false,"objectColor":[1.0,1.0,1.0,1.0],"objectIndex":0,"renderOrder":0}},"name":"cam_2","scale":[0.03785641863942146,0.03785641863942146,0.03785641863942146],"translation":[-0.32837215065956116,0.8854446411132812,-0.5119876265525818]},{"extensions":{"S8S_v3d_node":{"frustumCulling":true,"groupNames":[],"hidden":false,"hidpiCompositing":false,"objectColor":[1.0,1.0,1.0,1.0],"objectIndex":0,"renderOrder":0}},"name":"cam_4","scale":[0.03785641863942146,0.03785641863942146,0.03785641863942146],"translation":[-5.496538162231445,1.180366039276123,5.91765022277832]},{"camera":0,"extensions":{"S8S_v3d_node":{"frustumCulling":true,"groupNames":["CAMERA","Collection","Collection.001"],"hidden":false,"hidpiCompositing":false,"objectColor":[1.0,1.0,1.0,1.0],"objectIndex":0,"renderOrder":0}},"name":"Camera","rotation":[-0.14395444095134735,-0.36722442507743835,-0.05764123424887657,0.9171155095100403],"scale":[1.0,0.9999998807907104,0.9999999403953552],"translation":[-54.23713684082031,26.19302749633789,56.60771942138672]},{"extensions":{"S8S_v3d_node":{"frustumCulling":true,"groupNames":["Collection","Collection 2","Collection.001"],"hidden":false,"hidpiCompositing":false,"objectColor":[1.0,1.0,1.0,1.0],"objectIndex":0,"renderOrder":0,"useShadows":true}},"mesh":3,"name":"park2"},{"extensions":{"S8S_v3d_node":{"frustumCulling":true,"groupNames":["Collection","Collection 2","Collection.001"],"hidden":false,"hidpiCompositing":false,"objectColor":[1.0,1.0,1.0,1.0],"objectIndex":0,"renderOrder":0,"useShadows":true}},"mesh":7,"name":"park4"},{"extensions":{"S8S_v3d_node":{"frustumCulling":true,"groupNames":["Collection","Collection 2","Collection.001"],"hidden":false,"hidpiCompositing":false,"objectColor":[1.0,1.0,1.0,1.0],"objectIndex":0,"renderOrder":0,"useShadows":true}},"mesh":6,"name":"park5"},{"extensions":{"S8S_v3d_node":{"frustumCulling":true,"groupNames":["Collection","Collection 2","Collection.001"],"hidden":false,"hidpiCompositing":false,"objectColor":[1.0,1.0,1.0,1.0],"objectIndex":0,"renderOrder":0,"useShadows":true}},"mesh":0,"name":"SCREEN"},{"extensions":{"S8S_v3d_node":{"frustumCulling":true,"groupNames":["Collection","Collection 2","Collection.001"],"hidden":false,"hidpiCompositing":false,"objectColor":[1.0,1.0,1.0,1.0],"objectIndex":0,"renderOrder":0,"useShadows":true}},"mesh":1,"name":"mirro"}],"samplers":[{}],"scene":0,"scenes":[{"extensions":{"S8S_v3d_scene":{"aaMethod":"AUTO","iblEnvironmentMode":"PMREM","physicallyCorrectLights":true,"pmremMaxTileSize":256,"shadowMap":{"esmDistanceScale":1.0,"renderReverseSided":false,"renderSingleSided":true,"type":"PCFPOISSON"},"worldMaterial":9}},"extras":{"animFrameRate":24,"coordSystem":"Z_UP_RIGHT"},"name":"Scene","nodes":[8,1,9,10,0,2,11,3,12,4,5,13,14,15,16,17,6,7]}],"textures":[{"extensions":{"S8S_v3d_texture":{"colorSpace":"srgb"}},"name":"park1_bake.jpg","sampler":0,"source":0},{"extensions":{"S8S_v3d_texture":{"colorSpace":"srgb"}},"name":"park2_bake.jpg","sampler":0,"source":1},{"extensions":{"S8S_v3d_texture":{"colorSpace":"srgb"}},"name":"park4_bake.jpg","sampler":0,"source":2},{"extensions":{"S8S_v3d_texture":{"colorSpace":"srgb"}},"name":"park3_bake.jpg","sampler":0,"source":3},{"extensions":{"S8S_v3d_texture":{"colorSpace":"srgb"}},"name":"park5_bake.jpg","sampler":0,"source":4},{"extensions":{"S8S_v3d_texture":{"colorSpace":"srgb"}},"name":"park6_bake.jpg","sampler":0,"source":5},{"extensions":{"S8S_v3d_texture":{"colorSpace":"srgb"}},"name":"tap_here_texture.jpg","sampler":0,"source":6},{"extensions":{"S8S_v3d_texture":{"colorSpace":"linear rec.709","source":7}},"name":"environment.hdr","sampler":0}]}
